<svg width="150" height="40" viewBox="0 0 150 40" fill="none" xmlns="http://www.w3.org/2000/svg">
<path d="M0.0131611 11.2124C0.0131611 9.37664 0.0160154 7.54088 0.00802341 5.70512C0.00745255 5.51497 0.0548337 5.43389 0.249496 5.43047C3.53307 5.38022 6.57745 4.349 9.57901 3.14704C11.8995 2.21803 14.1539 1.13827 16.4419 0.136167C16.6074 0.0636504 16.7456 0.0396685 16.9254 0.120179C19.0073 1.04805 21.0664 2.02731 23.1791 2.88438C25.2576 3.72775 27.3492 4.534 29.5527 5.00393C30.8029 5.27059 32.0674 5.40249 33.3427 5.43446C33.5105 5.43846 33.567 5.47044 33.5664 5.65373C33.5584 8.80221 33.5733 11.9507 33.5522 15.0992C33.5356 17.5179 33.1172 19.8842 32.5286 22.2241C31.577 26.0098 29.8536 29.4096 27.3778 32.4176C25.8884 34.2265 24.1199 35.7374 22.1761 37.0455C20.6582 38.067 19.0278 38.8819 17.4146 39.7338C16.8848 40.0136 16.5081 39.9816 15.9977 39.7172C13.9626 38.6632 11.9486 37.5851 10.1031 36.2096C7.82877 34.5149 5.93523 32.473 4.36595 30.1165C2.40163 27.1667 1.21082 23.9217 0.57831 20.4466C0.121053 17.937 -0.0479206 15.4127 0.0114486 12.8672C0.0245783 12.3156 0.0131611 11.764 0.0131611 11.2118V11.2124ZM32.8745 11.4699C32.8745 9.79575 32.87 8.12101 32.8797 6.44684C32.8808 6.20931 32.81 6.14364 32.5766 6.13793C31.8059 6.11909 31.0421 6.01517 30.2817 5.89183C27.5753 5.45159 25.0567 4.42894 22.5455 3.38572C20.6765 2.60859 18.8372 1.76294 17.003 0.908157C16.8106 0.818511 16.6479 0.831644 16.463 0.917293C15.7386 1.25247 15.0119 1.58136 14.2829 1.90683C11.9669 2.94034 9.66236 4.00354 7.25277 4.81093C5.22851 5.48928 3.174 6.03458 1.03043 6.15506C0.792952 6.1682 0.734154 6.23729 0.734725 6.46911C0.742146 8.68573 0.759271 10.9023 0.731299 13.119C0.694194 16.0727 1.01102 18.9848 1.6538 21.8655C2.5295 25.7889 4.32656 29.2457 6.92738 32.2925C9.57045 35.3891 12.9374 37.4778 16.5772 39.1811C16.6902 39.2342 16.7838 39.2387 16.8991 39.1811C18.6779 38.2954 20.4373 37.3784 22.0774 36.2456C25.3489 33.985 27.9109 31.1026 29.7223 27.5601C31.3429 24.3905 32.2443 21.0073 32.6548 17.4842C32.8871 15.4869 32.8711 13.4781 32.8745 11.4716V11.4699Z" fill="#060607"/>
<path d="M32.8741 11.4699C32.8701 13.4764 32.8867 15.4852 32.6544 17.4825C32.2445 21.0056 31.3431 24.3882 29.7219 27.5584C27.9105 31.1008 25.3485 33.9832 22.0769 36.2438C20.4369 37.3773 18.6775 38.2937 16.8987 39.1793C16.7834 39.2364 16.6898 39.2319 16.5767 39.1793C12.9369 37.476 9.5706 35.3879 6.92696 32.2908C4.32556 29.2434 2.52851 25.7871 1.65338 21.8638C1.0106 18.9831 0.693201 16.0716 0.730878 13.1172C0.75885 10.9012 0.742295 8.68399 0.734303 6.46738C0.733732 6.23555 0.79253 6.16646 1.03001 6.15333C3.17358 6.03285 5.22809 5.48754 7.25235 4.8092C9.66194 4.0018 11.9665 2.93918 14.2825 1.9051C15.0114 1.57963 15.7381 1.25073 16.4626 0.915557C16.6475 0.829907 16.8108 0.817345 17.0026 0.906421C18.8368 1.76178 20.6761 2.60743 22.545 3.38398C25.0557 4.4272 27.5743 5.44986 30.2813 5.8901C31.0423 6.014 31.8055 6.11735 32.5761 6.1362C32.8096 6.14191 32.8804 6.20757 32.8793 6.44511C32.8696 8.11928 32.8741 9.79344 32.8741 11.4682V11.4699ZM1.90056 12.4634C1.94737 14.8468 2.05755 17.5036 2.56732 20.1319C3.10336 22.8967 3.96193 25.5376 5.3748 27.9866C6.8008 30.4579 8.56133 32.6408 10.8293 34.3926C12.5373 35.7111 14.3938 36.784 16.3278 37.7313C16.6116 37.8706 16.8199 37.8603 17.0888 37.7233C18.3863 37.0643 19.6679 36.3774 20.889 35.5855C23.9796 33.5824 26.46 31.0009 28.2005 27.7434C29.7624 24.8204 30.6883 21.6851 31.1758 18.4172C31.7033 14.8822 31.6137 11.3209 31.6045 7.76354C31.6045 7.62822 31.5743 7.57511 31.4167 7.56084C29.4513 7.3844 27.568 6.85451 25.7247 6.18188C22.7414 5.09298 19.8432 3.80081 16.974 2.44184C16.8416 2.37903 16.7354 2.37046 16.6001 2.43556C15.5383 2.9466 14.4526 3.40397 13.3685 3.86591C11.2095 4.78579 9.06025 5.72908 6.82535 6.4571C5.30458 6.95215 3.77069 7.39411 2.17515 7.5694C1.95194 7.59396 1.89314 7.65562 1.89486 7.87203C1.90342 9.30867 1.89942 10.7453 1.89942 12.4634H1.90056Z" fill="#ABA8AB"/>
<path d="M1.90043 12.4635C1.90043 10.7454 1.90442 9.30872 1.89586 7.87209C1.89472 7.65568 1.95352 7.59401 2.17615 7.56946C3.7717 7.39473 5.30502 6.95278 6.82635 6.45715C9.06126 5.72913 11.2105 4.78584 13.3695 3.86596C14.4536 3.40402 15.5393 2.94665 16.6011 2.43561C16.7364 2.37052 16.8426 2.37908 16.9751 2.44189C19.8442 3.8003 22.7424 5.09304 25.7257 6.18193C27.569 6.85457 29.4528 7.38446 31.4177 7.56089C31.5753 7.57517 31.605 7.62827 31.6056 7.7636C31.6141 11.3209 31.7037 14.8822 31.1768 18.4173C30.6893 21.6857 29.7634 24.8205 28.2015 27.7434C26.461 31.001 23.9806 33.5824 20.89 35.5855C19.6684 36.3775 18.3868 37.0644 17.0898 37.7233C16.8209 37.8598 16.6126 37.8701 16.3288 37.7313C14.3942 36.784 12.5378 35.7111 10.8303 34.3927C8.56233 32.6414 6.80124 30.4579 5.3758 27.9867C3.96293 25.5376 3.10436 22.8968 2.56833 20.132C2.05855 17.5037 1.94838 14.8463 1.90157 12.4635H1.90043ZM2.12991 12.2893C2.1556 14.9268 2.28633 17.5534 2.78982 20.152C3.26991 22.6301 4.01031 25.0169 5.20055 27.2501C6.32114 29.3519 7.68435 31.2773 9.42261 32.9201C11.504 34.8872 13.9181 36.3489 16.4898 37.572C16.6599 37.6531 16.7935 37.6291 16.9448 37.552C18.4342 36.7892 19.911 36.0075 21.2964 35.0608C24.2592 33.036 26.6048 30.4614 28.2249 27.2535C29.9107 23.916 30.8343 20.3558 31.1763 16.6432C31.2471 15.8769 31.3081 15.1061 31.3378 14.3352C31.4189 12.2248 31.4063 10.1133 31.3966 8.00113C31.3955 7.80871 31.3247 7.7419 31.1534 7.74647C30.703 7.75846 30.2749 7.63227 29.8387 7.54947C27.7083 7.14521 25.6738 6.43774 23.6741 5.62007C21.4317 4.70304 19.2157 3.72778 17.019 2.70569C16.8791 2.6406 16.757 2.59663 16.5909 2.67429C14.3679 3.70837 12.1062 4.65166 9.83705 5.57839C7.43146 6.5605 4.97906 7.39702 2.39251 7.76531C2.19556 7.79329 2.12306 7.85553 2.12477 8.06623C2.13448 9.47374 2.12991 10.8818 2.12991 12.2893Z" fill="#060607"/>
<path d="M2.12989 12.2887C2.12989 10.8812 2.13446 9.47313 2.12475 8.06561C2.12304 7.85492 2.19554 7.79325 2.39249 7.7647C4.97961 7.3964 7.43144 6.55989 9.83704 5.57777C12.1056 4.65161 14.3679 3.70775 16.5908 2.67367C16.757 2.59659 16.8786 2.63998 17.019 2.70508C19.2151 3.7266 21.4317 4.70243 23.674 5.61946C25.6738 6.43713 27.7089 7.14459 29.8387 7.54886C30.2749 7.63166 30.703 7.75785 31.1534 7.74585C31.3247 7.74129 31.396 7.80866 31.3966 8.00052C31.4063 10.1121 31.4189 12.2236 31.3378 14.3346C31.3081 15.1055 31.247 15.8763 31.1762 16.6426C30.8343 20.3552 29.9101 23.9154 28.2249 27.2529C26.6048 30.4602 24.2592 33.0354 21.2964 35.0601C19.911 36.0069 18.4341 36.7886 16.9448 37.5514C16.7935 37.6291 16.6599 37.6525 16.4898 37.5714C13.9181 36.3478 11.5039 34.8866 9.42259 32.9195C7.68433 31.2767 6.32113 29.3519 5.20053 27.2495C4.0103 25.0163 3.26989 22.6295 2.7898 20.1514C2.28631 17.5528 2.15558 14.9256 2.12989 12.2887ZM25.5562 17.9079C25.6412 17.2775 25.4854 16.7077 24.9294 16.2948C24.8055 16.2029 24.8129 16.0619 24.7941 15.9334C24.7278 15.4817 24.6599 15.0329 24.5018 14.5996C24.1279 13.5735 23.4708 12.7444 22.7013 11.9952C21.5739 10.8972 20.3128 10.0219 18.731 9.7158C18.5329 9.67754 18.4958 9.58447 18.4947 9.40746C18.4924 8.94153 18.4673 8.47616 18.4627 8.0108C18.4587 7.62366 18.2463 7.40954 17.8958 7.32903C17.0761 7.14117 16.254 7.15259 15.4411 7.36671C15.1163 7.45236 14.9262 7.68704 14.9045 8.02907C14.88 8.41792 14.8537 8.80791 14.8634 9.19676C14.8686 9.40689 14.7892 9.47027 14.6037 9.5131C13.1035 9.86083 11.8122 10.6203 10.6893 11.6406C9.29358 12.91 8.4567 14.5065 8.16899 16.3805C8.13074 16.6289 8.06053 16.8544 7.83846 17.0166C7.62668 17.1713 7.54105 17.3974 7.54904 17.6652C7.56217 18.1215 7.56788 18.5783 7.56445 19.0345C7.56331 19.2355 7.63695 19.3925 7.7985 19.4942C7.98175 19.6095 8.03256 19.7717 8.04397 19.9726C8.08279 20.675 8.12503 21.3773 8.17641 22.0791C8.19068 22.2743 8.18383 22.4942 8.35395 22.6329C8.45214 22.7123 8.45956 22.7928 8.45899 22.9013C8.45727 23.5768 8.44814 24.2523 8.46926 24.9272C8.48867 25.5507 8.38477 26.1503 8.08622 26.6899C7.84246 27.1301 7.88813 27.5144 8.13303 27.9135C8.15301 27.9461 8.17127 27.9792 8.18954 28.0129C9.10748 29.707 10.4838 30.9507 12.0834 31.9728C12.3945 32.1715 12.705 32.4632 13.0612 32.4718C13.474 32.4821 13.6795 32.7562 13.9678 32.9298C14.0328 32.9691 14.0962 33.0114 14.159 33.0537C14.8868 33.5436 15.6986 33.8822 16.4498 34.3264C16.7884 34.5263 17.011 34.4714 17.3101 34.2665C18.2503 33.6235 19.0461 32.8001 20.105 32.2914C21.0464 31.8391 21.8399 31.1003 22.6613 30.4379C23.7591 29.5529 24.6302 28.4628 25.4408 27.3191C25.5339 27.1878 25.5168 27.085 25.4431 26.9605C24.9653 26.1503 24.7809 25.2749 24.7775 24.3345C24.7718 22.8042 24.8803 21.2825 25.0173 19.7608C25.0298 19.6192 25.0395 19.4587 25.1434 19.3588C25.5573 18.962 25.6041 18.4629 25.5556 17.9079H25.5562Z" fill="#ABA8AB"/>
<path d="M25.5561 17.9079C25.6047 18.4629 25.5579 18.962 25.144 19.3588C25.0395 19.4587 25.0304 19.6186 25.0178 19.7608C24.8808 21.2825 24.7729 22.8042 24.7781 24.3345C24.7815 25.2749 24.9659 26.1503 25.4437 26.9605C25.5173 27.085 25.5344 27.1878 25.4414 27.3191C24.6308 28.4622 23.7597 29.5523 22.6619 30.4379C21.841 31.1002 21.0469 31.8385 20.1056 32.2913C19.0472 32.8001 18.2509 33.6235 17.3107 34.2664C17.0115 34.4708 16.7889 34.5262 16.4504 34.3264C15.6992 33.8821 14.8874 33.5435 14.1595 33.0536C14.0968 33.0114 14.0334 32.9691 13.9683 32.9297C13.68 32.7556 13.4745 32.4815 13.0618 32.4718C12.7056 32.4632 12.395 32.1714 12.0839 31.9727C10.4844 30.9506 9.10803 29.707 8.1901 28.0128C8.17183 27.9792 8.15356 27.946 8.13358 27.9135C7.88868 27.5144 7.84301 27.1301 8.08677 26.6898C8.3859 26.1503 8.48922 25.5513 8.46982 24.9272C8.44869 24.2523 8.4584 23.5768 8.45954 22.9013C8.45954 22.7928 8.45212 22.7128 8.3545 22.6329C8.18439 22.4941 8.19124 22.2743 8.17697 22.079C8.12559 21.3773 8.08335 20.6749 8.04453 19.9726C8.03368 19.7716 7.9823 19.6095 7.79906 19.4941C7.63751 19.3925 7.56387 19.2355 7.56501 19.0345C7.56843 18.5782 7.56272 18.1214 7.54959 17.6652C7.5416 17.3974 7.6278 17.1713 7.83902 17.0166C8.06108 16.8544 8.1313 16.6289 8.16954 16.3805C8.45726 14.5064 9.29413 12.9099 10.6899 11.6406C11.8122 10.6197 13.104 9.86023 14.6042 9.51307C14.7898 9.47024 14.8691 9.40686 14.864 9.19673C14.8549 8.80788 14.8811 8.41789 14.9051 8.02904C14.9268 7.68701 15.1169 7.45233 15.4417 7.36668C16.2546 7.15256 17.0766 7.14114 17.8964 7.329C18.2469 7.40951 18.4592 7.62363 18.4632 8.01077C18.4678 8.4767 18.4935 8.94207 18.4952 9.40743C18.4958 9.58444 18.5335 9.67751 18.7315 9.71577C20.3134 10.0218 21.5738 10.8972 22.7019 11.9952C23.4708 12.7443 24.1279 13.5734 24.5023 14.5995C24.6599 15.0323 24.7278 15.4817 24.7946 15.9334C24.8135 16.0618 24.806 16.2029 24.9299 16.2948C25.4859 16.7082 25.6418 17.2775 25.5567 17.9079H25.5561ZM16.2129 9.64839C16.3071 10.6796 16.3048 11.7143 16.3208 12.7478C16.3237 12.9271 16.3277 13.1064 16.3305 13.2862C16.5126 13.2634 16.6942 13.232 16.8774 13.2211C17.0424 13.2114 17.0955 13.1383 17.0561 12.9842C16.9704 12.6496 16.967 12.307 16.9722 11.9661C16.9876 10.9286 16.8089 9.87851 17.1571 8.86041C17.2045 8.72166 17.1029 8.7308 17.0167 8.7268C16.6759 8.71196 16.3351 8.69654 15.9943 8.68112C15.9064 8.65771 15.96 8.79703 15.879 8.78162C15.8921 8.67884 15.7391 8.656 15.7534 8.58063C16.2101 8.58063 16.6536 8.5909 17.096 8.57606C17.2981 8.56921 17.3192 8.64286 17.3164 8.8233C17.297 10.1926 17.2878 11.5624 17.2867 12.9316C17.2867 13.0384 17.1971 13.2497 17.4014 13.2434C17.5773 13.2377 17.5076 13.0378 17.5082 12.9248C17.5133 11.9073 17.4968 10.8892 17.5122 9.87165C17.5213 9.28581 17.4454 8.69311 17.6047 8.11469C17.6344 8.00677 17.5801 7.97651 17.4894 7.97594C16.9864 7.97194 16.4835 7.92912 15.9834 8.03875C15.7283 8.09471 15.6078 8.21804 15.6209 8.48927C15.6541 9.18246 15.6849 9.87622 15.6952 10.57C15.7077 11.4253 15.7922 12.2858 15.6752 13.1349C15.573 13.8772 15.5838 14.6104 15.6546 15.3487C15.6552 15.3704 15.6563 15.3921 15.6569 15.4143C15.4651 15.5588 15.4719 15.4223 15.4651 15.2842C15.4291 14.5327 15.4588 13.7847 15.5616 13.039C15.6072 12.7072 15.6061 12.3738 15.577 12.018C15.0335 12.3355 14.719 12.7546 14.6139 13.3388C14.4758 14.1102 14.4513 14.8862 14.4632 15.6661C14.4682 15.9863 14.6238 16.1089 14.9302 16.0339C14.9411 16.031 14.9462 16.0076 14.9616 15.9813C14.8463 15.8957 14.7858 15.7718 14.7572 15.6302L14.8628 15.6182C14.9325 15.6484 15.0073 15.6707 15.0712 15.7107C15.4834 15.9665 15.9115 16.2057 15.9966 16.7573C16.0474 17.0857 15.9931 17.4231 16.0896 17.7469C16.1153 17.8337 16.0434 17.8599 15.988 17.8925C15.9275 17.9279 15.8887 17.8616 15.8915 17.8377C15.9206 17.611 15.7619 17.704 15.6723 17.7132C14.7738 17.8 13.8747 17.8771 12.9784 17.9861C11.4628 18.1705 9.94434 18.3464 8.4447 18.8055V17.3997C8.28999 17.4665 8.29399 17.5779 8.29342 17.6772C8.29228 18.0289 8.29799 18.3807 8.30255 18.7318C8.30427 18.8706 8.36592 18.9905 8.4407 19.1007C8.70215 19.4838 8.79292 19.9149 8.8032 20.3683C8.81518 20.8925 8.89625 21.4087 8.95676 21.9277C8.97046 22.0442 9.00414 22.1281 9.14685 22.1201C9.23362 22.1156 9.25988 22.0807 9.25589 21.9974C9.23077 21.4755 9.20965 20.9536 9.18624 20.4174C10.0397 20.5219 10.9051 20.4174 11.7659 20.4945C11.8122 20.5819 11.8807 20.5476 11.9463 20.5276C12.1244 20.5465 12.3031 20.5647 12.5143 20.587C12.3859 20.6961 12.282 20.6378 12.1855 20.6281C11.5981 20.5693 11.0107 20.5305 10.4204 20.5596C10.1236 20.5745 9.83873 20.6218 9.57614 20.7806C9.45626 20.8531 9.40088 20.9302 9.3946 21.0678C9.38033 21.3916 9.39004 21.7142 9.41972 22.0368C9.426 22.103 9.48651 22.2007 9.35236 22.2018C9.15541 22.2035 9.18624 22.3411 9.18681 22.4622C9.19024 23.1565 9.18053 23.8514 9.20222 24.5452C9.22906 25.4148 9.11203 26.2519 8.72499 27.0393C8.66505 27.1615 8.68046 27.2626 8.73755 27.3865C9.67375 29.4141 11.3509 30.7057 13.1668 31.8602C13.2799 31.9322 13.3501 31.9156 13.3261 31.7632C13.297 31.5753 13.2821 31.3823 13.2256 31.2024C12.7627 29.7167 12.7461 28.1881 12.7615 26.6539C12.7689 25.9121 12.7518 25.1698 12.7472 24.4281C12.7461 24.2922 12.7393 24.226 12.5549 24.1677C11.9703 23.9833 11.3903 23.7635 10.9331 23.3221L10.9759 23.2787C11.4571 23.599 11.9526 23.8914 12.5166 24.0427C12.5903 24.0627 12.6959 24.1792 12.7415 24.0221C12.7786 23.8948 12.6622 23.8788 12.5709 23.8463C12.1027 23.6813 11.6803 23.4329 11.287 23.132C10.7561 22.7254 10.2657 22.3086 10.3942 21.5263C10.4416 21.2368 10.264 21.1038 9.94034 21.1203C9.90895 21.1032 9.87755 21.0861 9.84615 21.0689C9.96375 20.9148 10.1401 20.9553 10.2937 20.9456C11.9224 20.8417 13.5208 21.0204 15.0918 21.4589C16.1484 21.7536 16.2535 21.8838 16.2523 22.9818C16.2495 26.2639 16.2517 29.546 16.2295 32.8281C16.2266 33.2215 16.3225 33.4585 16.6924 33.6104C16.9773 33.7274 16.9659 33.756 16.9653 33.4368C16.9602 30.4493 16.9545 27.4624 16.9505 24.4749C16.9499 23.961 16.9522 23.4477 16.9653 22.9338C16.971 22.7157 17.0047 22.4976 17.1663 22.3274C17.1771 22.5512 17.1491 22.7677 17.1491 22.9841C17.1457 26.152 17.1457 29.3199 17.1463 32.4878C17.1463 32.7733 17.1537 33.0588 17.1588 33.3437C17.16 33.3985 17.1486 33.4784 17.2176 33.483C17.2901 33.4876 17.3301 33.4248 17.3295 33.346C17.3289 33.1935 17.3307 33.0416 17.3307 32.8892C17.3318 29.3695 17.3626 25.8493 17.2987 22.3303C17.2924 21.994 17.4254 21.8198 17.6846 21.6816C17.7434 21.6502 17.8022 21.6182 17.8638 21.5943C19.597 20.9205 21.3946 20.7098 23.2407 20.8468C23.4166 20.86 23.4908 20.9479 23.5325 21.126C23.5895 21.3699 23.577 21.6114 23.5873 21.8546C23.5895 21.9134 23.5559 21.9848 23.6426 22.0254C23.8881 22.1401 24.1712 21.986 24.1809 21.7153C24.2009 21.1546 24.1872 20.5916 24.226 20.0326C24.2592 19.5558 24.3887 19.1018 24.7752 18.7695C24.8768 18.6822 24.9054 18.5685 24.9065 18.4383C24.9105 18.0581 24.9219 17.6778 24.9259 17.2969C24.9265 17.225 24.9573 17.1308 24.874 17.0879C24.6399 16.968 24.4544 16.7602 24.1741 16.7219C23.9109 16.6854 23.6506 16.6266 23.3886 16.5803C22.03 16.3399 20.6622 16.1698 19.2881 16.0521C19.0706 16.0339 18.8514 16.0362 18.6328 16.039C18.5557 16.0402 18.4729 16.0778 18.4752 16.1703C18.4769 16.256 18.5414 16.3022 18.6294 16.3062C18.6767 16.3085 18.7241 16.3102 18.7721 16.3131C20.4824 16.4182 22.1795 16.63 23.8624 16.9503C24.02 16.9806 24.1769 17.0257 24.3277 17.0799C24.504 17.1433 24.4801 17.3158 24.4704 17.4465C24.4601 17.5938 24.3219 17.5327 24.2426 17.5168C23.0278 17.2769 21.7942 17.181 20.5691 17.0246C19.7562 16.9206 18.9376 16.9132 18.1224 16.8533C18.0294 16.8464 17.8964 17.0091 17.8444 16.7962C17.7993 16.6129 17.7908 16.4364 17.9597 16.3068C18.0728 16.22 18.1881 16.1361 18.3091 16.0613C18.4484 15.9745 18.5551 15.8666 18.6037 15.7044C18.0773 15.7769 17.6401 16.1852 17.5133 16.7248C17.4916 16.8161 17.4431 16.9532 17.4842 16.9983C17.7011 17.2364 17.4705 17.1736 17.3689 17.1793C17.0846 17.1936 16.798 17.1622 16.5178 17.2358C16.4721 17.2478 16.403 17.3129 16.3762 17.2278C16.3494 17.1422 16.4224 17.1153 16.4944 17.1085C16.6645 17.0925 16.8352 17.0622 17.0047 17.0674C17.2039 17.0731 17.309 17.0291 17.3409 16.8002C17.3946 16.4182 17.6241 16.1229 17.9106 15.8723C17.9563 15.8323 18.0362 15.8118 18.0163 15.7455C17.3124 15.3407 16.6154 15.4971 15.9024 15.7215C16.1947 16.0116 16.4007 16.3473 16.5012 16.7408C16.5189 16.8099 16.5754 16.9195 16.439 16.948C16.3134 16.9737 16.2848 16.9001 16.266 16.787C16.2026 16.3982 16.0394 16.0658 15.6946 15.8426C15.6209 15.7952 15.5085 15.7849 15.4891 15.6542C16.0103 15.5451 16.5246 15.42 17.0287 15.2573C17.0686 15.2442 17.1286 15.2482 17.1634 15.2699C17.4357 15.4395 17.7548 15.4869 18.0528 15.5451C18.3325 15.5993 18.6625 15.7547 18.9633 15.4754C18.731 15.3715 18.5066 15.3978 18.2937 15.3738C18.1104 15.3532 18.034 15.3058 18.0357 15.1037C18.0385 14.7891 18.026 14.4745 18.0419 14.157C17.7948 14.5127 17.8735 14.925 17.8387 15.3207C17.6703 15.3304 17.6012 15.2579 17.6081 15.0872C17.6241 14.7006 17.7063 14.3357 17.9146 14.0034C17.9592 13.932 18.0431 13.8721 17.8947 13.7841C17.317 13.4438 16.7495 13.4604 16.1758 13.7807C16.4316 14.161 16.5029 14.7811 16.3299 15.1266C16.3151 14.8393 16.3054 14.5516 16.2831 14.2643C16.27 14.0925 16.2123 13.9429 15.9949 13.9554C15.8938 13.9611 15.8344 13.9052 15.8767 13.8218C15.9577 13.6625 15.8539 13.3999 16.1376 13.3485C16.1981 13.3376 16.1992 13.2645 16.1981 13.2051C16.1724 12.0215 16.2158 10.8361 16.1159 9.65353C16.1484 9.65125 16.1804 9.64839 16.2129 9.64611V9.64839ZM8.95904 16.4484C8.9442 16.8748 9.07416 17.0483 9.34894 16.9692C9.67718 16.8755 10.0043 16.775 10.3359 16.6945C11.4908 16.4147 12.6565 16.192 13.845 16.1229C14.2886 16.0973 14.2931 16.1167 14.2823 15.6684C14.2532 14.4642 14.3394 13.2799 14.7612 12.1328C14.9239 11.6903 15.0312 11.2226 15.0392 10.7407C15.0432 10.4952 14.9245 10.393 14.6973 10.3884C14.4284 10.3827 14.1698 10.4369 13.9181 10.5317C12.5651 11.0411 11.4035 11.8296 10.4941 12.955C9.62181 14.0348 9.09205 15.2699 8.95847 16.449L8.95904 16.4484ZM15.4594 32.948C15.4594 30.1552 15.4582 27.4059 15.4628 24.6565C15.4628 24.4801 15.3949 24.4344 15.2322 24.4196C14.6356 24.3642 14.0391 24.2985 13.4614 24.1341C13.2679 24.0787 13.2582 24.1666 13.2576 24.3122C13.2565 24.9118 13.2428 25.5107 13.2473 26.1103C13.2593 27.6417 13.1897 29.1737 13.2964 30.704C13.3158 30.982 13.3877 31.2367 13.5601 31.4423C14.0825 32.0664 14.7184 32.5534 15.46 32.9486L15.4594 32.948ZM22.7881 22.5581C23.0318 22.1601 23.0467 21.7296 22.9976 21.2922C22.985 21.1791 22.9924 20.989 22.832 21.0153C22.6939 21.0381 22.7698 21.2134 22.7926 21.307C22.9279 21.866 22.7624 22.3149 22.3382 22.6889C22.2178 22.7951 22.1002 22.9155 22.0185 23.052C21.692 23.5973 21.1508 23.7795 20.5845 23.8731C20.2734 23.9245 20.2163 24.0421 20.2232 24.3293C20.2843 26.7801 20.1758 29.2171 19.5536 31.6061C19.5376 31.6684 19.4999 31.7512 19.5587 31.7934C19.6301 31.8448 19.7009 31.7832 19.7608 31.7363C20.2386 31.3606 20.7073 30.9723 21.1959 30.6109C22.4963 29.6482 23.6712 28.5644 24.568 27.202C24.6662 27.0524 24.6639 26.9605 24.5783 26.8018C23.972 25.6803 23.6067 24.4949 23.674 23.201C23.6786 23.1143 23.7699 22.9841 23.6101 22.943C23.4765 22.9087 23.3886 22.9761 23.3087 23.092C23.0158 23.5202 22.6356 23.8657 22.2218 24.174C21.9329 24.3887 21.6235 24.5497 21.2462 24.4852C21.0726 24.4555 21.0367 24.5395 21.0401 24.6914C21.0452 24.9477 21.0332 25.2047 21.0321 25.4616C21.0275 27.0901 20.9676 28.7135 20.6365 30.3157C20.5611 30.68 20.318 30.8981 20.0656 31.1436C20.0211 31.0351 20.0582 30.9649 20.0771 30.8935C20.2289 30.3031 20.3225 29.7024 20.387 29.0972C20.5503 27.5715 20.556 26.0401 20.5326 24.5081C20.5303 24.3505 20.5063 24.2197 20.7444 24.2003C21.4214 24.146 22.0208 23.8674 22.5038 23.4026C23.0666 22.8607 23.5878 22.2755 23.4697 21.3916C23.456 21.2882 23.4297 21.19 23.4063 21.0906C23.3732 20.9485 23.2493 20.9199 23.138 20.9405C22.969 20.9713 23.0969 21.0889 23.1049 21.1597C23.134 21.4064 23.1557 21.6542 23.126 21.8992C23.0952 22.1527 23.0227 22.3965 22.7886 22.5581H22.7881ZM8.59312 17.7594C10.8491 17.1553 13.1548 16.783 15.4651 16.3308C15.3469 16.1886 15.2356 16.1269 15.0752 16.1418C12.9744 16.3342 10.8863 16.5837 8.87227 17.2661C8.58741 17.3626 8.50692 17.4768 8.59312 17.76V17.7594ZM15.8036 16.9766C15.8167 16.5826 15.6609 16.4473 15.2721 16.5181C14.9074 16.5843 14.5432 16.6517 14.1795 16.7225C12.548 17.04 10.9097 17.3255 9.29642 17.732C9.12173 17.776 8.94819 17.8257 8.77694 17.8822C8.71186 17.9039 8.60739 17.9193 8.63251 18.0238C8.66219 18.1466 8.76609 18.0963 8.84544 18.0883C8.88254 18.0843 8.91851 18.0678 8.95504 18.0592C10.2263 17.776 11.5051 17.5385 12.8015 17.4014C13.7274 17.3038 14.6528 17.2038 15.5781 17.0982C15.6598 17.0891 15.8036 17.1479 15.803 16.9772L15.8036 16.9766ZM15.3652 17.5636C15.4628 17.5813 15.5684 17.575 15.6792 17.5539C15.7916 17.5327 15.8813 17.535 15.8687 17.3803C15.8544 17.2004 15.7288 17.2569 15.6375 17.2655C13.3586 17.4762 11.0855 17.7326 8.84544 18.2191C8.74097 18.2419 8.64107 18.2414 8.67989 18.4058C8.72042 18.5771 8.82946 18.4903 8.89967 18.4743C9.97517 18.2316 11.0638 18.0718 12.1558 17.9296C13.2199 17.7908 14.284 17.6555 15.3652 17.563V17.5636ZM16.7672 13.4592C16.568 13.3319 16.3825 13.3622 16.1986 13.4255C16.1598 13.4387 16.0925 13.4347 16.0993 13.4981C16.1062 13.5643 16.1684 13.5929 16.2238 13.582C16.4059 13.5466 16.5863 13.5009 16.7672 13.4587V13.4592Z" fill="#060607"/>
<path d="M16.33 15.1283C16.5024 14.7828 16.4316 14.1627 16.1758 13.7824C16.7496 13.4627 17.317 13.4456 17.8947 13.7859C18.0437 13.8738 17.9598 13.9338 17.9147 14.0051C17.7063 14.3369 17.6241 14.7018 17.6081 15.0889C17.6013 15.2596 17.6698 15.3321 17.8388 15.3224C17.8736 14.9267 17.7948 14.515 18.042 14.1587C18.026 14.4762 18.0386 14.7908 18.0357 15.1055C18.034 15.307 18.1105 15.355 18.2937 15.3755C18.5067 15.3995 18.7304 15.3727 18.9633 15.4772C18.6625 15.7558 18.3325 15.6011 18.0528 15.5468C17.7548 15.4886 17.4357 15.4412 17.1634 15.2716C17.1286 15.2499 17.0687 15.2459 17.0287 15.2591C16.5246 15.4218 16.0103 15.5463 15.4891 15.6559C15.5085 15.7867 15.621 15.7964 15.6946 15.8443C16.0394 16.0676 16.2027 16.3999 16.266 16.7888C16.2843 16.9018 16.3129 16.9755 16.439 16.9498C16.5754 16.9218 16.5189 16.8122 16.5012 16.7425C16.4008 16.3491 16.1947 16.0133 15.9024 15.7233C16.6154 15.4983 17.3124 15.3424 18.0163 15.7473C18.0357 15.8135 17.9564 15.8335 17.9107 15.874C17.6241 16.1247 17.3946 16.4199 17.341 16.8019C17.309 17.0309 17.204 17.0748 17.0047 17.0691C16.8352 17.0645 16.6645 17.0942 16.4944 17.1102C16.4225 17.1171 16.3494 17.1445 16.3762 17.2296C16.403 17.3146 16.4721 17.2496 16.5178 17.2376C16.7987 17.1639 17.0852 17.1959 17.3689 17.181C17.4706 17.1759 17.7012 17.2387 17.4843 17C17.4432 16.9549 17.4917 16.8179 17.5134 16.7265C17.6401 16.1869 18.0774 15.7787 18.6037 15.7061C18.5552 15.8677 18.4484 15.9762 18.3091 16.063C18.1887 16.1384 18.0728 16.2218 17.9598 16.3085C17.7908 16.4387 17.7994 16.6146 17.8445 16.7979C17.8964 17.0109 18.0294 16.8481 18.1225 16.855C18.9377 16.9149 19.7563 16.9224 20.5692 17.0263C21.7948 17.1827 23.0284 17.2792 24.2426 17.5185C24.322 17.5339 24.4601 17.5956 24.4704 17.4483C24.4795 17.3175 24.5035 17.1451 24.3277 17.0817C24.1764 17.0274 24.02 16.9818 23.8624 16.9521C22.179 16.6317 20.4824 16.4199 18.7721 16.3148C18.7247 16.312 18.6773 16.3097 18.6294 16.308C18.5415 16.304 18.477 16.2577 18.4753 16.1721C18.4735 16.079 18.5558 16.0413 18.6328 16.0407C18.8515 16.0379 19.0707 16.0356 19.2882 16.0539C20.6622 16.1709 22.03 16.3417 23.3886 16.5821C23.6507 16.6283 23.911 16.6877 24.1741 16.7237C24.4544 16.7625 24.6399 16.9698 24.874 17.0897C24.9573 17.1325 24.9271 17.2267 24.9259 17.2987C24.922 17.6789 24.9105 18.0592 24.9065 18.4401C24.9054 18.5703 24.8769 18.6839 24.7752 18.7713C24.3888 19.1036 24.2592 19.5575 24.2261 20.0343C24.1873 20.5933 24.201 21.1563 24.181 21.717C24.1713 21.9883 23.8881 22.1419 23.6427 22.0271C23.5559 21.9866 23.5901 21.9152 23.5873 21.8564C23.577 21.6131 23.5896 21.3716 23.5325 21.1278C23.4908 20.9496 23.4166 20.8617 23.2408 20.8486C21.3946 20.7109 19.597 20.9216 17.8639 21.596C17.8022 21.62 17.7434 21.652 17.6846 21.6834C17.4249 21.821 17.2924 21.9951 17.2987 22.332C17.3627 25.8516 17.3324 29.3713 17.3307 32.8909C17.3307 33.0434 17.329 33.1953 17.3296 33.3477C17.3296 33.4265 17.2902 33.4893 17.2177 33.4848C17.148 33.4802 17.16 33.4003 17.1589 33.3454C17.1537 33.0599 17.1463 32.775 17.1463 32.4895C17.1463 29.3216 17.1463 26.1537 17.1492 22.9858C17.1492 22.7694 17.1771 22.553 17.1663 22.3292C17.0053 22.4987 16.9711 22.7174 16.9653 22.9356C16.9516 23.4489 16.9499 23.9628 16.9505 24.4767C16.9539 27.4641 16.9602 30.451 16.9653 33.4385C16.9653 33.7571 16.9773 33.7291 16.6925 33.6121C16.3226 33.4602 16.2272 33.2232 16.2295 32.8298C16.2518 29.5477 16.2495 26.2656 16.2523 22.9835C16.2535 21.8861 16.1479 21.7559 15.0918 21.4607C13.5208 21.0221 11.9218 20.8434 10.2937 20.9473C10.1396 20.957 9.96378 20.9165 9.84618 21.0707C9.70404 21.395 9.73658 21.7285 9.82107 22.0665C9.86103 21.7519 9.90042 21.4367 9.94038 21.1221C10.2641 21.1061 10.4416 21.2391 10.3942 21.528C10.2658 22.3109 10.7556 22.7277 11.287 23.1337C11.6809 23.4352 12.1028 23.6836 12.5709 23.848C12.6617 23.88 12.7787 23.8965 12.7416 24.0239C12.6959 24.1809 12.5903 24.0644 12.5167 24.0444C11.9526 23.8931 11.4571 23.6008 10.9759 23.2804C10.9457 23.253 10.916 23.2256 10.8857 23.1976C10.8577 23.1668 10.8298 23.1365 10.8018 23.1057C10.7207 22.979 10.618 22.875 10.4861 22.8014C10.4656 22.766 10.445 22.73 10.4239 22.694C10.3879 22.6369 10.352 22.5798 10.316 22.5227C10.2001 22.127 10.2641 21.7125 10.1779 21.3122C10.1265 21.7387 9.97919 22.1693 10.2481 22.5804C10.2635 22.6489 10.2652 22.7277 10.3645 22.7334C10.348 22.7911 10.3851 22.8236 10.4216 22.8568C10.5004 22.9618 10.5609 23.0857 10.7059 23.1194C10.7413 23.1731 10.779 23.2233 10.8469 23.2388C10.8532 23.2896 10.8954 23.3044 10.9331 23.3233C11.3904 23.7641 11.9703 23.9845 12.5549 24.1689C12.7393 24.2272 12.7461 24.2934 12.7473 24.4293C12.7518 25.171 12.769 25.9133 12.7616 26.655C12.7456 28.1893 12.7627 29.7179 13.2257 31.2036C13.2816 31.3835 13.2964 31.5765 13.3261 31.7643C13.3501 31.9168 13.2805 31.9334 13.1669 31.8614C11.351 30.7069 9.67378 29.4153 8.73758 27.3876C8.68049 27.2637 8.66451 27.1632 8.72502 27.0405C9.11206 26.2531 9.22966 25.4165 9.20226 24.5463C9.18056 23.8526 9.19027 23.1577 9.18684 22.4633C9.18627 22.3423 9.15545 22.2052 9.35239 22.203C9.48654 22.2018 9.42603 22.1042 9.41975 22.0379C9.39007 21.7153 9.38036 21.3927 9.39464 21.069C9.40092 20.9314 9.45686 20.8537 9.57617 20.7818C9.83933 20.623 10.1236 20.575 10.4205 20.5608C11.0107 20.5317 11.5987 20.5705 12.1856 20.6293C12.2815 20.639 12.3859 20.6972 12.5144 20.5882C12.3032 20.5659 12.125 20.5476 11.9464 20.5288C11.9075 20.4032 11.8505 20.3758 11.766 20.4957C10.9051 20.4192 10.0403 20.5225 9.18627 20.4186C9.20968 20.9548 9.2308 21.4767 9.25592 21.9985C9.25991 22.0825 9.23365 22.1167 9.14688 22.1213C9.00474 22.1293 8.97049 22.0454 8.95679 21.9289C8.89628 21.4098 8.81522 20.8937 8.80323 20.3695C8.79295 19.9161 8.70162 19.485 8.44073 19.1019C8.36595 18.9922 8.3043 18.8718 8.30259 18.733C8.29802 18.3813 8.29231 18.0295 8.29345 17.6784C8.29345 17.579 8.29003 17.4677 8.44473 17.4009V18.8067C9.94437 18.3476 11.4629 18.1717 12.9785 17.9873C13.8742 17.8782 14.7738 17.8011 15.6724 17.7143C15.7614 17.7058 15.9207 17.6127 15.8916 17.8388C15.8887 17.8622 15.927 17.929 15.988 17.8936C16.0434 17.8617 16.1153 17.8348 16.0896 17.748C15.9937 17.4243 16.048 17.0874 15.9966 16.7585C15.911 16.2075 15.4834 15.9682 15.0712 15.7119C15.0073 15.6725 14.9325 15.6496 14.8629 15.6194C15.0438 15.5628 15.2602 15.6462 15.4486 15.472C15.2077 15.4326 15.005 15.4406 14.8041 15.5012C14.7321 15.5229 14.6694 15.5514 14.7573 15.6319C14.7858 15.7735 14.8469 15.8974 14.9616 15.9831C14.9468 16.0093 14.9411 16.0333 14.9302 16.0356C14.6231 16.1106 14.4675 15.988 14.4633 15.6679C14.4513 14.8879 14.4758 14.1119 14.614 13.3405C14.7184 12.7558 15.0336 12.3367 15.577 12.0198C15.6061 12.3761 15.6073 12.709 15.5616 13.0407C15.4594 13.7864 15.4297 14.5345 15.4651 15.2859C15.472 15.4241 15.4651 15.5605 15.6569 15.4161C15.734 15.4332 15.8094 15.4412 15.875 15.383C15.9869 15.3259 16.1467 15.3852 16.2215 15.2391L16.2164 15.2425C16.3208 15.2682 16.3779 15.2465 16.3345 15.1243L16.3311 15.1317L16.33 15.1283ZM14.3828 20.8954C14.0705 20.8537 13.768 20.7384 13.4426 20.7869C13.7634 20.8554 14.0842 20.9245 14.405 20.993C14.57 21.0495 14.7339 21.1129 14.9125 21.1106C15.6358 21.2877 16.3306 21.4995 16.5617 22.3429C16.5977 22.4748 16.6759 22.4394 16.7239 22.328C16.9671 21.7667 17.3398 21.3453 17.9598 21.1792C17.6658 21.1837 17.4135 21.2899 17.1834 21.4647C16.9488 21.6428 16.8124 21.9112 16.5675 22.1561C16.3796 21.4841 15.8573 21.2911 15.3024 21.1398C15.1654 21.1027 15.0307 21.0581 14.8948 21.017C14.7344 20.9331 14.562 20.9011 14.3828 20.8948V20.8954ZM13.5693 20.4026C12.8837 20.2005 12.1821 20.1314 11.4726 20.1245C12 20.2382 12.5326 20.3135 13.0664 20.3769C13.2325 20.3969 13.3992 20.4717 13.5705 20.4026C13.6458 20.5277 13.7834 20.5014 13.8941 20.5265C14.5004 20.6647 15.1106 20.7812 15.7026 20.9793C15.8031 21.013 15.9058 21.1409 16.1073 21.0387C15.2419 20.7361 14.4153 20.5334 13.5693 20.4015V20.4026ZM21.4734 20.5419C21.9952 20.5248 22.5164 20.4814 23.0393 20.5219C23.3452 20.5459 23.5553 20.7355 23.6398 21.029C23.6992 21.2346 23.6883 21.4401 23.6969 21.6468C23.7009 21.7347 23.7386 21.7913 23.8333 21.7947C23.9075 21.7976 23.9349 21.749 23.9355 21.6868C23.9435 21.1843 23.9526 20.6818 23.9532 20.1793C23.9532 20.0606 23.8841 20.0143 23.7991 20.1245C23.6284 20.3472 23.3784 20.3712 23.1363 20.3855C22.5866 20.4175 22.0357 20.4277 21.4854 20.4471C21.4489 20.4403 21.4112 20.4232 21.3769 20.4277C21.2759 20.4414 21.0938 20.3843 21.1132 20.5419C21.14 20.7589 21.2793 20.4945 21.3678 20.5608C21.3872 20.5756 21.438 20.5488 21.474 20.5414L21.4734 20.5419ZM12.5286 30.7462C12.1838 30.5453 12.129 30.193 12.0662 29.8481C11.9121 28.9979 11.895 28.1328 11.8419 27.2757C11.8014 26.6196 11.7277 25.9573 11.7757 25.2961C11.7888 25.1173 11.7117 25.0448 11.5593 24.9906C11.2893 24.8941 11.053 24.7342 10.8149 24.5749C10.413 24.306 10.074 23.9742 9.78681 23.5796C9.76284 23.9571 9.77368 24.3157 9.76055 24.6737C9.7303 25.4976 9.61099 26.3073 9.20054 27.0359C9.09151 27.23 9.10749 27.3425 9.2131 27.5121C9.8165 28.4805 10.5352 29.3467 11.4292 30.0593C11.8476 30.3928 12.2826 30.7051 12.7547 31.0603C12.7416 30.9358 12.7421 30.8793 12.7296 30.8256C12.2775 28.955 12.1896 27.0485 12.1639 25.1356C12.1616 24.946 12.2124 24.7256 12.1325 24.5766C12.0777 24.475 11.8379 24.4721 11.6809 24.4259C11.6632 24.4207 11.641 24.423 11.6267 24.4133C11.0986 24.0433 10.5632 23.683 10.171 23.1548C10.1202 23.0869 10.0934 22.971 9.94551 23.0075C10.449 23.7475 11.0547 24.3476 11.9133 24.6366C12.0634 24.6874 12.0354 24.7822 12.036 24.8798C12.0371 26.2485 12.1091 27.6126 12.2872 28.9704C12.3043 29.0995 12.2689 29.24 12.3043 29.3616C12.4305 29.7972 12.5149 30.2403 12.5852 30.6874C12.5663 30.7069 12.5475 30.7263 12.5286 30.7457V30.7462ZM13.4374 18.4458C13.1783 18.4732 12.9225 18.516 12.6782 18.612C11.3601 18.6868 10.0574 18.8752 8.749 19.1441C8.85575 19.2989 8.9585 19.4673 9.08181 19.6192C9.29645 19.8847 9.58245 20.0343 9.92439 20.0269C10.2201 20.02 10.5101 20.0554 10.8018 20.0817C10.8772 20.0886 10.9708 20.1411 11.029 20.0212C10.7059 19.8493 10.3582 19.9184 10.0249 19.9127C9.69434 19.907 9.44088 19.7694 9.21881 19.5484C9.14574 19.4753 9.04641 19.3862 9.06925 19.2869C9.09608 19.1692 9.24107 19.1995 9.33412 19.1835C10.6939 18.9551 12.0548 18.741 13.4386 18.7239C14.5889 18.7096 15.7391 18.689 16.8894 18.6713C16.9939 18.6696 17.1149 18.6508 17.1109 18.8118C17.0926 19.5227 17.1726 20.2376 17.0333 20.9445C17.0213 21.005 16.9688 21.0815 17.0384 21.1232C17.0721 21.1432 17.1452 21.1084 17.1954 21.0872C17.7771 20.8468 18.3834 20.6887 18.9959 20.5522C20.2272 20.2781 21.482 20.2205 22.7344 20.1559C23.3624 20.1234 23.8094 19.855 24.0971 19.2903C24.3745 18.745 24.3865 18.7518 23.7985 18.6879C22.2001 18.5149 20.6006 18.391 18.989 18.4521C17.6498 18.5035 16.3089 18.5126 14.9685 18.5366C14.8977 18.5377 14.8029 18.5766 14.7533 18.4801C14.7984 18.4121 14.8589 18.4304 14.9108 18.4275C16.173 18.3556 17.4346 18.2859 18.6968 18.2123C18.7635 18.2083 18.8817 18.2568 18.8868 18.1569C18.8931 18.0244 18.7573 18.0804 18.6882 18.0735C18.2715 18.0318 17.8536 18.0432 17.4352 18.0564C16.0936 18.0981 14.763 18.2505 13.4369 18.4464L13.4374 18.4458ZM18.598 17.2444C18.3702 17.2444 18.1419 17.2501 17.9141 17.2433C17.446 17.2284 17.4494 17.237 17.615 17.6755C17.6863 17.8639 17.8199 17.8451 17.9546 17.8594C20.0337 18.0798 22.1276 18.1352 24.2027 18.4035C24.4282 18.4327 24.4949 18.3653 24.4932 18.1317C24.4915 17.8851 24.3357 17.8839 24.1793 17.8605C22.328 17.5784 20.4715 17.3381 18.598 17.245V17.2444ZM24.6896 17.1228V18.6947C24.8278 18.4264 24.8392 17.3843 24.6896 17.1228ZM20.1758 20.6653C20.4539 20.631 20.7319 20.5967 21.0104 20.5625C21.0064 20.5362 21.003 20.51 20.999 20.4831C20.7227 20.5299 20.4384 20.5214 20.1758 20.6653ZM18.2401 21.0695C18.4422 21.073 18.9137 20.9468 19.0866 20.8428C18.8183 20.8463 18.5152 20.9274 18.2401 21.0695ZM20.0434 20.6721C19.8145 20.6105 19.6101 20.7218 19.3961 20.7658C19.6204 20.796 19.8328 20.7418 20.0434 20.6721Z" fill="#FCFCFC"/>
<path d="M8.95907 16.4486C9.09265 15.2695 9.6224 14.0339 10.4947 12.9547C11.404 11.8287 12.5657 11.0407 13.9187 10.5314C14.1704 10.4366 14.429 10.3829 14.6979 10.388C14.9257 10.3926 15.0444 10.4954 15.0398 10.7403C15.0318 11.2228 14.9245 11.6899 14.7618 12.1324C14.34 13.2796 14.2538 14.4638 14.2829 15.6681C14.2937 16.1163 14.2892 16.0969 13.8456 16.1226C12.6571 16.1917 11.4914 16.4144 10.3365 16.6941C10.0049 16.7747 9.67778 16.8746 9.34953 16.9688C9.07476 17.0472 8.94479 16.8736 8.95964 16.448L8.95907 16.4486ZM9.65608 15.5053C9.73086 15.5333 9.7714 15.5179 9.7948 15.4694C9.8633 15.3237 9.91982 15.1713 9.99803 15.0308C10.8903 13.4252 12.0537 12.0999 13.7925 11.3713C13.885 11.3325 14.0631 11.3062 13.9889 11.1634C13.9307 11.051 13.8039 11.1743 13.7149 11.2074C13.2017 11.3981 12.7667 11.7162 12.3363 12.0474C11.142 12.9667 10.2441 14.1087 9.65608 15.5053Z" fill="#FCFCFC"/>
<path d="M15.4599 32.9482C14.7182 32.5531 14.0827 32.066 13.5597 31.4419C13.3872 31.2363 13.3153 30.9817 13.2959 30.7036C13.1891 29.1728 13.2587 27.6413 13.2468 26.1099C13.2422 25.5104 13.2559 24.9114 13.257 24.3118C13.257 24.1662 13.2673 24.0789 13.4609 24.1337C14.0393 24.2987 14.636 24.3638 15.2321 24.4192C15.3949 24.434 15.4628 24.4797 15.4628 24.6562C15.4582 27.4055 15.4594 30.1549 15.4594 32.9476L15.4599 32.9482Z" fill="#FCFCFC"/>
<path d="M22.7886 22.5582C23.0227 22.3966 23.0952 22.1522 23.126 21.8992C23.1557 21.6543 23.134 21.4065 23.1049 21.1598C23.0963 21.089 22.969 20.9714 23.138 20.9405C23.2493 20.92 23.3732 20.9485 23.4063 21.0907C23.4297 21.1901 23.456 21.2883 23.4697 21.3916C23.5884 22.2761 23.0672 22.8608 22.5038 23.4027C22.0208 23.8675 21.422 24.1461 20.7444 24.2004C20.5058 24.2192 20.5303 24.3505 20.5326 24.5081C20.5566 26.0401 20.5503 27.571 20.387 29.0972C20.3225 29.7025 20.2289 30.3032 20.0771 30.8936C20.0588 30.965 20.0211 31.0352 20.0656 31.1437C20.318 30.8982 20.5611 30.6801 20.6365 30.3158C20.9676 28.713 21.0275 27.0902 21.0321 25.4617C21.0327 25.2047 21.0447 24.9484 21.0401 24.6914C21.0372 24.5395 21.0732 24.4562 21.2462 24.4853C21.6235 24.5492 21.9335 24.3888 22.2218 24.1741C22.6356 23.8658 23.0153 23.5203 23.3087 23.0921C23.388 22.9756 23.4765 22.9088 23.6101 22.943C23.7699 22.9841 23.6786 23.1143 23.674 23.2011C23.6067 24.4944 23.972 25.6804 24.5783 26.8018C24.6645 26.9606 24.6662 27.0525 24.568 27.2021C23.6712 28.5645 22.4969 29.6483 21.1959 30.611C20.7073 30.9724 20.2386 31.3607 19.7608 31.7364C19.7009 31.7832 19.6306 31.8443 19.5587 31.7935C19.4993 31.7512 19.537 31.6685 19.5536 31.6062C20.1752 29.2172 20.2843 26.7807 20.2232 24.3294C20.2158 24.0422 20.2734 23.9246 20.5845 23.8732C21.1508 23.7795 21.6926 23.5974 22.0185 23.0521C22.1002 22.9156 22.2178 22.7951 22.3382 22.6889C22.7624 22.3149 22.9279 21.8661 22.7926 21.3071C22.7698 21.2129 22.6944 21.0382 22.832 21.0153C22.9924 20.9885 22.985 21.1792 22.9976 21.2923C23.0472 21.7302 23.0318 22.1602 22.7881 22.5582H22.7886ZM22.4958 22.9442C22.5329 22.9453 22.5534 22.9276 22.5557 22.8899C22.5814 22.8734 22.6368 22.8648 22.5945 22.8214C22.5586 22.7843 22.5363 22.8328 22.5129 22.8557C22.4963 22.8734 22.4804 22.8911 22.4638 22.9093C22.4433 22.9293 22.4227 22.9487 22.4022 22.9687C22.3673 22.9933 22.3325 23.0178 22.3005 23.0441L22.312 23.0983C22.3188 23.0943 22.3257 23.0903 22.3319 23.0863C22.3177 23.0709 22.3034 23.0561 22.2891 23.0407C22.369 23.1434 22.401 23.0612 22.4387 23.0013C22.4758 23.0007 22.4946 22.9813 22.4958 22.9447V22.9442ZM23.2727 23.8914C23.1066 23.9485 23.0164 24.049 22.9245 24.1404C22.5557 24.507 22.1167 24.7702 21.6526 24.9901C21.4785 25.0723 21.4226 25.1705 21.4254 25.3572C21.4425 26.4884 21.3798 27.6166 21.2416 28.7398C21.1822 29.2229 21.1006 29.7031 21.0264 30.2061C21.3078 30.0822 21.4859 29.8641 21.7034 29.7008C22.6533 28.987 23.4457 28.1226 24.1233 27.1501C24.1838 27.0633 24.2272 26.9908 24.165 26.8692C23.6883 25.9419 23.3812 24.9615 23.2733 23.892L23.2727 23.8914ZM22.5734 22.8397C22.7076 22.7477 22.7909 22.7043 22.7698 22.5747C22.6716 22.6204 22.6311 22.6884 22.5734 22.8397Z" fill="#FCFCFC"/>
<path d="M16.116 9.65636C16.2154 10.8383 16.172 12.0237 16.1983 13.208C16.1994 13.2674 16.1983 13.3404 16.1377 13.3513C15.854 13.4033 15.9579 13.6653 15.8768 13.8246C15.8345 13.908 15.8939 13.964 15.995 13.9583C16.2131 13.9457 16.2702 14.0947 16.2833 14.2672C16.3056 14.5538 16.3153 14.8416 16.3302 15.1294L16.3336 15.122C16.2342 15.1014 16.1954 15.1419 16.2154 15.2402L16.2205 15.2367C16.0892 15.1608 16.0024 15.3224 15.8814 15.3001C15.7957 15.2721 15.7266 15.3201 15.6535 15.3486C15.5827 14.6098 15.5719 13.8772 15.6741 13.1349C15.7911 12.2858 15.7066 11.4253 15.6941 10.57C15.6838 9.87619 15.653 9.18243 15.6198 8.48924C15.6067 8.21801 15.7278 8.09468 15.9824 8.03872C16.4826 7.92909 16.9857 7.97191 17.4887 7.97591C17.5795 7.97648 17.6338 8.00674 17.6041 8.11466C17.4448 8.69308 17.5207 9.28578 17.5116 9.87162C17.4961 10.8891 17.5127 11.9072 17.5076 12.9248C17.5076 13.0378 17.5767 13.2377 17.4008 13.2434C17.1964 13.2502 17.2854 13.0384 17.286 12.9316C17.2872 11.5618 17.2963 10.1925 17.3157 8.82327C17.318 8.64341 17.2974 8.56918 17.0953 8.57603C16.6528 8.59087 16.2091 8.5806 15.7523 8.5806C15.738 8.65597 15.8911 8.67881 15.8779 8.78159C15.9573 9.07337 16.0361 9.36515 16.1155 9.65693L16.116 9.65636Z" fill="#FCFCFC"/>
<path d="M15.9937 8.68075C16.3346 8.69616 16.6755 8.71158 17.0164 8.72643C17.1026 8.73042 17.2048 8.72129 17.1569 8.86004C16.8091 9.87813 16.9873 10.9276 16.9719 11.9657C16.9667 12.3072 16.9701 12.6492 17.0558 12.9838C17.0952 13.138 17.0415 13.211 16.8771 13.2208C16.6944 13.2316 16.5122 13.2636 16.3301 13.2859C16.3266 13.1066 16.3226 12.9273 16.3203 12.7474C16.3049 11.7133 16.3066 10.6792 16.2124 9.64802C16.2256 9.30599 16.0531 9.00564 15.9932 8.68018L15.9937 8.68075Z" fill="#FCFCFC"/>
<path d="M8.59372 17.7595C8.50752 17.4763 8.58801 17.3621 8.87287 17.2656C10.8869 16.5838 12.975 16.3343 15.0758 16.1413C15.2362 16.1265 15.3475 16.1881 15.4657 16.3303C13.156 16.7831 10.8497 17.1554 8.59372 17.759V17.7595Z" fill="#FCFCFC"/>
<path d="M15.8042 16.9768C15.8048 17.1481 15.6609 17.0887 15.5793 17.0979C14.6545 17.2035 13.7286 17.3034 12.8026 17.4011C11.5062 17.5381 10.2275 17.7762 8.95619 18.0589C8.91909 18.0669 8.8837 18.084 8.84659 18.088C8.76667 18.096 8.66277 18.1462 8.63366 18.0235C8.60854 17.919 8.71244 17.9036 8.77809 17.8819C8.94934 17.8253 9.12288 17.7757 9.29757 17.7317C10.9108 17.3251 12.5492 17.0396 14.1807 16.7222C14.5443 16.6514 14.9085 16.584 15.2733 16.5177C15.6615 16.4475 15.8173 16.5828 15.8048 16.9763L15.8042 16.9768Z" fill="#FCFCFC"/>
<path d="M15.3658 17.5641C14.2846 17.6566 13.2205 17.7913 12.1565 17.9307C11.0644 18.0734 9.97578 18.2333 8.90028 18.4754C8.83007 18.4914 8.72103 18.5782 8.6805 18.4069C8.64168 18.2419 8.74158 18.2424 8.84605 18.2202C11.0867 17.7331 13.3592 17.4773 15.6381 17.2666C15.7289 17.258 15.855 17.2015 15.8693 17.3814C15.8819 17.5361 15.7922 17.5332 15.6798 17.5549C15.569 17.5761 15.4634 17.5824 15.3658 17.5647V17.5641Z" fill="#FCFCFC"/>
<path d="M15.9938 8.68072C16.0537 9.00619 16.2262 9.30653 16.213 9.64856C16.1805 9.65085 16.1485 9.6537 16.116 9.65599C16.0366 9.36421 15.9578 9.07243 15.8784 8.78065C15.9595 8.79606 15.9058 8.65674 15.9938 8.68015V8.68072Z" fill="#060607"/>
<path d="M9.93927 21.1193C9.8993 21.4339 9.8599 21.7491 9.81993 22.0637C9.73542 21.7257 9.70287 21.3928 9.84505 21.0679C9.87646 21.085 9.90786 21.1021 9.93927 21.1193Z" fill="#060607"/>
<path d="M14.7555 15.6292C14.6676 15.5486 14.7304 15.5201 14.8024 15.4984C15.0033 15.4379 15.2066 15.4299 15.447 15.4693C15.2586 15.644 15.0422 15.5601 14.8612 15.6166L14.7555 15.6286V15.6292Z" fill="#060607"/>
<path d="M16.7674 13.4594C16.5864 13.5011 16.406 13.5473 16.2238 13.5827C16.1684 13.5936 16.1062 13.565 16.0993 13.4988C16.0925 13.4354 16.1599 13.44 16.1987 13.4263C16.3826 13.3629 16.5681 13.3326 16.7674 13.4599V13.4594Z" fill="#060607"/>
<path d="M11.7654 20.4933C11.8493 20.3729 11.9064 20.4003 11.9458 20.5265C11.8802 20.5464 11.8116 20.5813 11.7654 20.4933Z" fill="#060607"/>
<path d="M15.6535 15.3478C15.7266 15.3192 15.7963 15.2707 15.8813 15.2992C15.8791 15.3261 15.8762 15.3529 15.8739 15.3797C15.8083 15.438 15.7329 15.43 15.6558 15.4128C15.6552 15.3911 15.6541 15.3694 15.6535 15.3472V15.3478Z" fill="#060607"/>
<path d="M13.4374 18.4465C14.7635 18.2506 16.0942 18.0987 17.4357 18.0565C17.8547 18.0433 18.272 18.0319 18.6888 18.0736C18.7578 18.0805 18.8943 18.0245 18.8874 18.157C18.8823 18.2569 18.7641 18.2084 18.6973 18.2124C17.4357 18.286 16.1736 18.3563 14.9114 18.4276C14.8594 18.4305 14.7984 18.4128 14.7538 18.4802C14.8035 18.5767 14.8983 18.5378 14.9691 18.5367C16.3094 18.5121 17.6504 18.503 18.9896 18.4522C20.6011 18.3905 22.2007 18.515 23.7991 18.688C24.3871 18.7514 24.3751 18.7451 24.0976 19.2904C23.8099 19.8551 23.3629 20.1241 22.735 20.156C21.482 20.2206 20.2272 20.2782 18.9965 20.5523C18.3839 20.6888 17.7777 20.847 17.196 21.0873C17.1452 21.1085 17.0727 21.1433 17.039 21.1233C16.9693 21.0816 17.0219 21.0051 17.0338 20.9446C17.1731 20.2377 17.0926 19.5234 17.1115 18.8119C17.1155 18.6509 16.995 18.6703 16.89 18.6714C15.7397 18.6891 14.5894 18.7097 13.4392 18.724C12.0554 18.7411 10.6945 18.9552 9.33469 19.1836C9.24107 19.199 9.09665 19.1694 9.06982 19.287C9.04698 19.3869 9.14574 19.4754 9.21938 19.5485C9.44144 19.77 9.69433 19.9071 10.0254 19.9128C10.3588 19.9185 10.7065 19.8494 11.0296 20.0213C10.9719 20.1412 10.8783 20.0887 10.8024 20.0818C10.5101 20.0555 10.2207 20.0201 9.92496 20.027C9.58302 20.035 9.29702 19.8848 9.08237 19.6193C8.95964 19.4674 8.85689 19.2984 8.74957 19.1442C10.0574 18.8753 11.3607 18.6869 12.6788 18.6121C13.1395 18.6429 13.5956 18.5789 14.0523 18.5413C14.2732 18.5441 14.4964 18.5652 14.7105 18.4853C14.4873 18.4242 14.2675 18.4488 14.0483 18.4899C13.8479 18.4316 13.635 18.5493 13.438 18.4465H13.4374Z" fill="#060607"/>
<path d="M18.598 17.2445C20.4715 17.3376 22.328 17.578 24.1793 17.86C24.3351 17.884 24.4909 17.8852 24.4932 18.1313C24.4949 18.3642 24.4281 18.4322 24.2027 18.4031C22.1276 18.1347 20.0343 18.0793 17.9546 17.8589C17.8199 17.8446 17.6863 17.864 17.615 17.675C17.4488 17.2371 17.446 17.2285 17.9141 17.2428C18.1419 17.2502 18.3702 17.2439 18.598 17.2439V17.2445Z" fill="#060607"/>
<path d="M12.5854 30.6887C12.5152 30.2422 12.4307 29.7985 12.3045 29.3628C12.2691 29.2412 12.3045 29.1007 12.2874 28.9717C12.1092 27.6139 12.0373 26.2497 12.0361 24.8811C12.0361 24.784 12.0635 24.6886 11.9134 24.6378C11.0546 24.3489 10.4488 23.7488 9.94514 23.0087C10.093 22.9728 10.1204 23.0881 10.1707 23.1561C10.5624 23.6842 11.0986 24.0445 11.6267 24.4145C11.641 24.4243 11.6633 24.422 11.681 24.4271C11.838 24.4734 12.0778 24.4762 12.1326 24.5779C12.2126 24.7269 12.1612 24.9467 12.164 25.1369C12.1897 27.0497 12.2777 28.9563 12.7299 30.8269C12.743 30.8805 12.7425 30.9371 12.755 31.0615C12.2828 30.7058 11.8477 30.3935 11.4292 30.0606C10.535 29.348 9.8161 28.4818 9.21255 27.5134C9.10692 27.3438 9.09093 27.2307 9.19999 27.0371C9.61054 26.3085 9.72988 25.4989 9.76014 24.6749C9.77327 24.3169 9.76242 23.9583 9.7864 23.5809C10.0736 23.9754 10.4128 24.3072 10.8148 24.5761C11.0529 24.7354 11.2893 24.8953 11.5594 24.9918C11.7118 25.0461 11.7883 25.1186 11.7758 25.2973C11.7278 25.9585 11.8015 26.6209 11.842 27.277C11.8951 28.134 11.9122 28.9997 12.0664 29.8493C12.1292 30.1942 12.184 30.5465 12.5289 30.7475C12.5523 30.7743 12.5609 30.844 12.6123 30.7989C12.6448 30.7703 12.6203 30.7201 12.5849 30.6892L12.5854 30.6887ZM11.8334 28.9962C11.866 28.9363 11.8603 28.8792 11.822 28.8244C11.7729 27.6938 11.7244 26.5626 11.6747 25.4321C11.6696 25.3196 11.677 25.2002 11.5508 25.1363C10.9872 24.8491 10.4299 24.551 9.95428 24.0325C9.94743 24.133 9.94343 24.1673 9.94343 24.201C9.95314 25.2231 9.79268 26.2086 9.29934 27.1194C9.24396 27.221 9.27479 27.2947 9.32846 27.3809C9.93372 28.359 10.6812 29.2149 11.5571 29.9578C11.6781 30.0606 11.8077 30.1691 12.0116 30.2056C11.9071 29.7859 11.7838 29.4028 11.8329 28.9974L11.8334 28.9962Z" fill="#060607"/>
<path d="M21.4854 20.4479C22.0358 20.4285 22.5869 20.4182 23.1367 20.3862C23.3788 20.3719 23.6289 20.348 23.7997 20.1253C23.8842 20.0151 23.9538 20.0613 23.9538 20.1801C23.9538 20.6826 23.9441 21.185 23.9361 21.6875C23.935 21.7492 23.9076 21.7983 23.8339 21.7954C23.7397 21.792 23.7014 21.7355 23.6974 21.6476C23.6889 21.4409 23.6997 21.2353 23.6403 21.0297C23.5558 20.7362 23.3457 20.5467 23.0397 20.5227C22.5166 20.4821 21.9953 20.5255 21.4734 20.5427C21.4774 20.5113 21.4814 20.4799 21.4854 20.4479Z" fill="#060607"/>
<path d="M14.8948 21.0176C15.0307 21.0587 15.1661 21.1032 15.3025 21.1403C15.8575 21.2917 16.38 21.4847 16.5679 22.1567C16.8123 21.9118 16.9493 21.6434 17.184 21.4652C17.4141 21.2905 17.6659 21.1843 17.9605 21.1797C17.3404 21.3453 16.9676 21.7667 16.7243 22.3286C16.6758 22.4405 16.5981 22.4753 16.5622 22.3434C16.3309 21.5001 15.636 21.2882 14.9125 21.1112L14.8948 21.0176Z" fill="#060607"/>
<path d="M13.5693 20.4026C14.415 20.5339 15.2423 20.7372 16.1074 21.0398C15.9058 21.142 15.8036 21.0141 15.7026 20.9804C15.1104 20.7823 14.4995 20.6658 13.8936 20.5276C13.7829 20.5025 13.6453 20.5282 13.5699 20.4037H13.5687L13.5693 20.4026Z" fill="#060607"/>
<path d="M13.571 20.4033C13.3991 20.4718 13.2329 20.397 13.0668 20.3776C12.5329 20.3137 12.0001 20.2383 11.4725 20.1252C12.1823 20.1315 12.884 20.2012 13.5698 20.4033H13.571Z" fill="#060607"/>
<path d="M24.6896 17.123C24.8392 17.3846 24.8278 18.4266 24.6896 18.695V17.123Z" fill="#060607"/>
<path d="M14.0526 18.5412C13.5952 18.5788 13.1395 18.6428 12.6787 18.612C12.9231 18.5155 13.1789 18.4732 13.4382 18.4458C13.6352 18.5486 13.8481 18.431 14.0486 18.4892C14.0571 18.5058 14.0583 18.5229 14.0526 18.5406V18.5412Z" fill="#060607"/>
<path d="M10.2475 22.5788C9.97857 22.1671 10.1265 21.7372 10.1778 21.3101C10.2641 21.7103 10.1995 22.1249 10.3155 22.5206C10.2926 22.54 10.2703 22.5594 10.2475 22.5788Z" fill="#060607"/>
<path d="M14.4053 20.9935C14.0844 20.925 13.7635 20.8559 13.4426 20.7874C13.768 20.7389 14.0707 20.8536 14.383 20.8959C14.3904 20.9284 14.3979 20.961 14.4053 20.9941V20.9935Z" fill="#060607"/>
<path d="M20.1752 20.6653C20.4373 20.5214 20.7222 20.5305 20.9986 20.4832C21.0026 20.5094 21.006 20.5357 21.01 20.5625C20.732 20.5968 20.4539 20.631 20.1752 20.6653Z" fill="#060607"/>
<path d="M18.2395 21.0697C18.5147 20.9275 18.8179 20.8464 19.0862 20.843C18.9127 20.9469 18.4416 21.0731 18.2395 21.0697Z" fill="#060607"/>
<path d="M20.0436 20.672C19.8335 20.7417 19.621 20.7959 19.3961 20.7656C19.6102 20.7217 19.8146 20.6103 20.0436 20.672Z" fill="#060607"/>
<path d="M14.405 20.9937C14.3976 20.9612 14.3902 20.9286 14.3828 20.8955C14.5615 20.9018 14.7345 20.9338 14.8949 21.0177L14.9126 21.1113C14.7339 21.1136 14.5706 21.0502 14.405 20.9937Z" fill="#060607"/>
<path d="M21.4855 20.4479C21.4815 20.4793 21.4775 20.5107 21.4735 20.5426C21.4375 20.5501 21.3867 20.5769 21.3673 20.5621C21.2793 20.4958 21.1394 20.7596 21.1126 20.5432C21.0932 20.3862 21.2753 20.4427 21.3764 20.429C21.4112 20.4244 21.4489 20.441 21.4849 20.4484L21.4855 20.4479Z" fill="#060607"/>
<path d="M10.7048 23.1172C10.5598 23.0841 10.4993 22.9596 10.4211 22.8545C10.4427 22.8357 10.4639 22.8174 10.4856 22.7986C10.6175 22.8722 10.7203 22.9767 10.8013 23.1029C10.7694 23.1075 10.7374 23.1121 10.7054 23.1166L10.7048 23.1172Z" fill="#060607"/>
<path d="M15.8739 15.3797C15.8762 15.3528 15.879 15.326 15.8813 15.2992C16.0023 15.3214 16.0897 15.1598 16.2205 15.2358C16.1457 15.382 15.9858 15.3226 15.8739 15.3797Z" fill="#060607"/>
<path d="M10.364 22.7312C10.2652 22.7255 10.2635 22.6467 10.2475 22.5782C10.2698 22.5593 10.2926 22.5399 10.3149 22.5205C10.3508 22.5776 10.3868 22.6347 10.4228 22.6918C10.4028 22.7049 10.3834 22.7181 10.3634 22.7318L10.364 22.7312Z" fill="#060607"/>
<path d="M10.7048 23.1172C10.7367 23.1127 10.7687 23.1081 10.8007 23.1035C10.8287 23.1343 10.8567 23.1646 10.8846 23.1954C10.8709 23.2091 10.8584 23.2229 10.8458 23.2371C10.7779 23.2217 10.7402 23.1715 10.7048 23.1178V23.1172Z" fill="#060607"/>
<path d="M16.2152 15.2384C16.1953 15.1402 16.2339 15.1005 16.3326 15.1209C16.3763 15.2423 16.3196 15.2639 16.2152 15.2384Z" fill="#060607"/>
<path d="M10.4233 22.6919C10.4439 22.7279 10.4644 22.7638 10.4855 22.7992C10.4644 22.8175 10.4427 22.8364 10.4216 22.8546C10.385 22.8215 10.3479 22.789 10.3645 22.7313C10.3839 22.7182 10.4039 22.705 10.4239 22.6919H10.4233Z" fill="#060607"/>
<path d="M10.9314 23.3205C10.894 23.3017 10.852 23.287 10.8457 23.2365C10.8582 23.2223 10.8713 23.2087 10.8843 23.1951C10.9144 23.2223 10.9439 23.2495 10.974 23.2773L10.9314 23.3205Z" fill="#060607"/>
<path d="M9.6561 15.5054C10.2435 14.1088 11.1415 12.9668 12.3363 12.0475C12.7667 11.7163 13.2017 11.3982 13.7149 11.2075C13.8039 11.1744 13.9307 11.0511 13.9889 11.1636C14.0625 11.3063 13.885 11.3326 13.7925 11.3714C12.0537 12.1 10.8903 13.4253 9.99804 15.0309C9.91983 15.1714 9.86389 15.3239 9.79482 15.4695C9.77198 15.518 9.73145 15.5334 9.6561 15.5054Z" fill="#060607"/>
<path d="M23.2733 23.8917C23.3812 24.9612 23.6884 25.9421 24.1652 26.8689C24.2274 26.9905 24.1846 27.0624 24.1235 27.1498C23.4452 28.1222 22.6526 28.9867 21.703 29.7005C21.4855 29.8638 21.3073 30.0819 21.0258 30.2058C21.1006 29.7022 21.1817 29.2225 21.2411 28.7395C21.3793 27.6163 21.4427 26.4886 21.425 25.3569C21.4221 25.1702 21.4786 25.0719 21.6522 24.9897C22.1164 24.7705 22.555 24.5067 22.9244 24.1401C23.0163 24.0487 23.1066 23.9482 23.2727 23.8911L23.2733 23.8917Z" fill="#060607"/>
<path d="M22.574 22.8404C22.6323 22.6891 22.6728 22.6205 22.7704 22.5754C22.7916 22.7056 22.7076 22.749 22.574 22.8404Z" fill="#060607"/>
<path d="M22.2976 23.0419C22.3323 23.0175 22.3669 22.9931 22.4015 22.9688C22.4128 22.9807 22.4247 22.9914 22.4378 23.0011C22.4003 23.0607 22.3691 23.1418 22.2891 23.0402L22.2976 23.0419Z" fill="#060607"/>
<path d="M22.5129 22.8554C22.5362 22.8327 22.5583 22.7844 22.594 22.8213C22.636 22.8644 22.581 22.8729 22.5555 22.8894C22.5424 22.8763 22.5282 22.865 22.5129 22.8554Z" fill="#060607"/>
<path d="M22.5552 22.8903C22.5529 22.9278 22.5325 22.9448 22.4956 22.9442C22.4854 22.9317 22.4752 22.9204 22.4639 22.909C22.4803 22.8915 22.4962 22.8739 22.5127 22.8557C22.528 22.8659 22.5422 22.8773 22.5552 22.8898V22.8903Z" fill="#060607"/>
<path d="M22.4952 22.9441C22.4941 22.981 22.4748 22.9997 22.4385 23.0003C22.4255 22.9906 22.4135 22.9799 22.4022 22.9679C22.4226 22.9481 22.443 22.9288 22.4635 22.9089C22.4748 22.9203 22.4856 22.9316 22.4952 22.9441Z" fill="#060607"/>
<path d="M22.2891 23.0403C22.3032 23.0555 22.3173 23.0702 22.3314 23.0854C22.3247 23.0893 22.3179 23.0933 22.3117 23.0972C22.3077 23.0792 22.3044 23.0617 22.2987 23.0431C22.2976 23.0425 22.2891 23.0403 22.2891 23.0403Z" fill="#060607"/>
<path d="M14.0523 18.5413C14.058 18.5236 14.0568 18.5065 14.0483 18.4899C14.2675 18.4494 14.4874 18.4248 14.7106 18.4854C14.4965 18.5653 14.2738 18.5442 14.0523 18.5413Z" fill="#FCFCFC"/>
<path d="M11.8339 28.9961C11.7848 29.4015 11.9082 29.7852 12.0127 30.2043C11.8082 30.1678 11.6792 30.0593 11.5581 29.9565C10.6822 29.2136 9.93479 28.3577 9.32953 27.3796C9.27586 27.2934 9.2456 27.2197 9.30041 27.1181C9.79376 26.2073 9.95364 25.2218 9.9445 24.1997C9.9445 24.166 9.9485 24.1317 9.95535 24.0312C10.431 24.5503 10.9877 24.8478 11.5519 25.135C11.6781 25.1995 11.6706 25.3189 11.6758 25.4308C11.7254 26.5613 11.774 27.6925 11.8231 28.8231C11.7654 28.8847 11.7734 28.9418 11.8345 28.9949L11.8339 28.9961Z" fill="#FCFCFC"/>
<path d="M11.8334 28.9961C11.7723 28.9424 11.7643 28.8853 11.8219 28.8242C11.8602 28.879 11.8659 28.9367 11.8334 28.9961Z" fill="#060607"/>
<path d="M12.5842 30.6885C12.6194 30.7191 12.6438 30.7685 12.6115 30.7974C12.5604 30.8422 12.5513 30.773 12.5286 30.7463C12.5474 30.7271 12.5661 30.7078 12.5848 30.6885H12.5842Z" fill="#FCFCFC"/>
<path d="M53.2152 29.6773C51.4624 29.6773 50.1231 29.1652 49.1974 28.141C48.2915 27.0972 47.8385 25.4822 47.8385 23.2961V16.3536C47.8385 14.2265 48.2915 12.6312 49.1974 11.5677C50.1231 10.5042 51.4624 9.97239 53.2152 9.97239C54.4363 9.97239 55.4604 10.2481 56.2876 10.7996C57.1148 11.351 57.7057 12.129 58.0602 13.1334C58.4344 14.1379 58.5427 15.3196 58.3852 16.6785C58.3458 16.8755 58.2571 16.974 58.1193 16.974H55.5491C55.3521 16.974 55.2733 16.8656 55.3127 16.649C55.4112 15.3885 55.293 14.4333 54.9582 13.7834C54.6234 13.1334 54.0326 12.8085 53.1857 12.8085C52.4176 12.8085 51.8464 13.094 51.4722 13.6652C51.098 14.2364 50.9109 15.1719 50.9109 16.4717V23.1188C50.9109 24.4581 51.098 25.4133 51.4722 25.9844C51.8661 26.5556 52.4471 26.8412 53.2152 26.8412C54.1015 26.8412 54.6923 26.4965 54.9878 25.8072C55.2832 25.0982 55.4014 24.1626 55.3423 23.0006C55.3226 22.7643 55.4014 22.6461 55.5786 22.6461H58.0897C58.267 22.6461 58.3753 22.7643 58.4147 23.0006C58.5723 25.0686 58.2079 26.7033 57.3216 27.9047C56.455 29.0864 55.0862 29.6773 53.2152 29.6773ZM61.0066 29.5C60.8096 29.5 60.7112 29.3917 60.7112 29.175V10.4746C60.7112 10.258 60.7998 10.1496 60.9771 10.1496H68.8354C69.0126 10.1496 69.1012 10.258 69.1012 10.4746V12.6312C69.1012 12.8479 69.0126 12.9562 68.8354 12.9562H63.8131V18.3329H68.3922C68.5695 18.3329 68.6581 18.4412 68.6581 18.6579V20.6963C68.6581 20.913 68.5695 21.0213 68.3922 21.0213H63.8131V26.6935H68.8354C69.0126 26.6935 69.1012 26.8018 69.1012 27.0184V29.175C69.1012 29.3917 69.0126 29.5 68.8354 29.5H61.0066ZM71.6804 29.5C71.5032 29.5 71.4146 29.3917 71.4146 29.175V10.4746C71.4146 10.258 71.5032 10.1496 71.6804 10.1496H75.0778C75.2354 10.1496 75.3339 10.2284 75.3733 10.386L78.0616 20.135C78.1995 20.6274 78.3374 21.1789 78.4752 21.7894C78.6328 22.3999 78.7805 23.0203 78.9184 23.6506C79.0759 24.2611 79.1941 24.8027 79.2729 25.2754H79.332C79.3123 24.8815 79.2827 24.4285 79.2433 23.9165C79.2236 23.3847 79.1941 22.8431 79.1547 22.2916C79.135 21.7205 79.1153 21.1789 79.0956 20.6668C79.0956 20.135 79.0956 19.6722 79.0956 19.2783V10.4451C79.0956 10.2481 79.1843 10.1496 79.3615 10.1496H81.7545C81.9317 10.1496 82.0203 10.2481 82.0203 10.4451V29.175C82.0203 29.3917 81.9317 29.5 81.7545 29.5H78.3866C78.2487 29.5 78.1503 29.4311 78.0912 29.2932L75.4028 19.751C75.1468 18.8253 74.9203 17.9095 74.7233 17.0035C74.5264 16.0778 74.3491 15.2211 74.1916 14.4333H74.1325C74.1719 15.0045 74.2014 15.6741 74.2211 16.4422C74.2605 17.2103 74.29 17.9784 74.3097 18.7465C74.3294 19.4949 74.3393 20.1547 74.3393 20.7259V29.175C74.3393 29.3917 74.2605 29.5 74.1029 29.5H71.6804ZM87.3768 29.5C87.1995 29.5 87.1109 29.3917 87.1109 29.175V12.9562H84.0385C83.8415 12.9562 83.743 12.8479 83.743 12.6312V10.4746C83.743 10.258 83.8415 10.1496 84.0385 10.1496H93.2853C93.4625 10.1496 93.5512 10.258 93.5512 10.4746V12.6312C93.5512 12.8479 93.4625 12.9562 93.2853 12.9562H90.2128V29.175C90.2128 29.3917 90.1144 29.5 89.9174 29.5H87.3768ZM100.414 29.6773C98.6415 29.6773 97.3219 29.1455 96.4553 28.082C95.6084 26.9987 95.185 25.3739 95.185 23.2074V10.4451C95.185 10.2481 95.2736 10.1496 95.4509 10.1496H98.0211C98.1983 10.1496 98.287 10.2481 98.287 10.4451V23.1188C98.287 24.4581 98.4544 25.4133 98.7892 25.9844C99.124 26.5556 99.6656 26.8412 100.414 26.8412C101.182 26.8412 101.734 26.5654 102.068 26.014C102.403 25.4428 102.571 24.4778 102.571 23.1188V10.4451C102.571 10.2481 102.659 10.1496 102.837 10.1496H105.407C105.584 10.1496 105.673 10.2481 105.673 10.4451V23.2074C105.673 25.3739 105.229 26.9987 104.343 28.082C103.477 29.1455 102.167 29.6773 100.414 29.6773ZM108.378 29.5C108.201 29.5 108.112 29.3917 108.112 29.175V10.4746C108.112 10.258 108.201 10.1496 108.378 10.1496H112.396C114.267 10.1496 115.635 10.6026 116.502 11.5086C117.369 12.3949 117.802 13.8031 117.802 15.7332C117.802 17.1709 117.595 18.3231 117.181 19.1897C116.788 20.0365 116.216 20.6372 115.468 20.9918L115.438 21.0213L118.511 29.1159C118.57 29.372 118.491 29.5 118.275 29.5H115.498C115.36 29.5 115.261 29.4311 115.202 29.2932L112.543 21.6121H111.214V29.175C111.214 29.3917 111.125 29.5 110.948 29.5H108.378ZM111.214 18.9829H112.425C113.233 18.9829 113.814 18.7268 114.168 18.2148C114.523 17.7027 114.7 16.9247 114.7 15.8809C114.7 14.8568 114.513 14.1182 114.139 13.6652C113.764 13.1925 113.174 12.9562 112.366 12.9562H111.214V18.9829ZM120.495 29.5C120.318 29.5 120.229 29.3917 120.229 29.175V10.4746C120.229 10.258 120.318 10.1496 120.495 10.1496H123.065C123.242 10.1496 123.331 10.258 123.331 10.4746V29.175C123.331 29.3917 123.242 29.5 123.065 29.5H120.495ZM131.024 29.6773C129.271 29.6773 127.932 29.1652 127.006 28.141C126.1 27.1169 125.647 25.5905 125.647 23.562V16.1172C125.647 14.069 126.1 12.5327 127.006 11.5086C127.932 10.4845 129.271 9.97239 131.024 9.97239C132.757 9.97239 134.087 10.4845 135.012 11.5086C135.938 12.5327 136.401 14.069 136.401 16.1172V23.562C136.401 25.5905 135.938 27.1169 135.012 28.141C134.087 29.1652 132.757 29.6773 131.024 29.6773ZM131.024 26.8412C131.792 26.8412 132.363 26.5753 132.737 26.0435C133.131 25.5118 133.328 24.6353 133.328 23.4142V16.2649C133.328 15.0242 133.131 14.1379 132.737 13.6061C132.363 13.0744 131.792 12.8085 131.024 12.8085C130.256 12.8085 129.675 13.0744 129.281 13.6061C128.907 14.1379 128.72 15.0242 128.72 16.2649V23.4142C128.72 24.6353 128.907 25.5118 129.281 26.0435C129.675 26.5753 130.256 26.8412 131.024 26.8412ZM138.959 29.5C138.782 29.5 138.693 29.3917 138.693 29.175V10.4746C138.693 10.258 138.782 10.1496 138.959 10.1496H142.356C142.514 10.1496 142.612 10.2284 142.652 10.386L145.34 20.135C145.478 20.6274 145.616 21.1789 145.754 21.7894C145.911 22.3999 146.059 23.0203 146.197 23.6506C146.354 24.2611 146.473 24.8027 146.551 25.2754H146.61C146.591 24.8815 146.561 24.4285 146.522 23.9165C146.502 23.3847 146.473 22.8431 146.433 22.2916C146.414 21.7205 146.394 21.1789 146.374 20.6668C146.374 20.135 146.374 19.6722 146.374 19.2783V10.4451C146.374 10.2481 146.463 10.1496 146.64 10.1496H149.033C149.21 10.1496 149.299 10.2481 149.299 10.4451V29.175C149.299 29.3917 149.21 29.5 149.033 29.5H145.665C145.527 29.5 145.429 29.4311 145.37 29.2932L142.681 19.751C142.425 18.8253 142.199 17.9095 142.002 17.0035C141.805 16.0778 141.628 15.2211 141.47 14.4333H141.411C141.45 15.0045 141.48 15.6741 141.5 16.4422C141.539 17.2103 141.569 17.9784 141.588 18.7465C141.608 19.4949 141.618 20.1547 141.618 20.7259V29.175C141.618 29.3917 141.539 29.5 141.381 29.5H138.959Z" fill="white"/>
</svg>
