<svg width="24" height="24" viewBox="0 0 24 24" fill="none" xmlns="http://www.w3.org/2000/svg">
<path d="M12 4.76559C12 3.75695 12.76 2.8851 13.7614 3.00592C15.0519 3.16163 16.4735 3.68382 17 5.00003M12 4.76559C12 3.75695 11.24 2.8851 10.2386 3.00592C8.94804 3.16163 7.52648 3.68382 6.99999 5.00003M12 4.76559V19.3333M17 5.00003C18 7.50003 19 6.5 20 8C21 9.5 20 10.5 20 12M17 5.00003C17.3333 6.00003 17.6 8.4 16 10M20 12C20 13.5 21.6572 14.2642 20.5 16C19.5 17.5 18.2906 16.7094 17.5 17.5C16.5 18.5 17 19 15.5 20C14.3599 20.76 13.2199 20.7499 12.5188 20.4085C12.1298 20.2191 12 19.7661 12 19.3333M20 12C19.8333 12.6667 19 14 17 14M12 19.3333C12 19.7661 11.8702 20.2191 11.4811 20.4085C10.7801 20.7499 9.64006 20.76 8.49999 20C6.99999 19 7.49999 18.5 6.49999 17.5C5.70942 16.7094 4.49999 17.5 3.49999 16C2.3428 14.2642 3.99999 13.5 3.99999 12M6.99999 5.00003C5.99999 7.50003 4.99999 6.5 3.99999 8C2.99999 9.5 3.99999 10.5 3.99999 12M6.99999 5.00003C6.66666 6.00003 6.39999 8.4 7.99999 10M3.99999 12C4.16666 12.6667 4.99999 14 6.99999 14" stroke="white" stroke-width="1.5" stroke-linecap="round"/>
</svg>
