<svg width="24" height="24" viewBox="0 0 24 24" fill="none" xmlns="http://www.w3.org/2000/svg">
<g clip-path="url(#clip0_822_127)">
<path fill-rule="evenodd" clip-rule="evenodd" d="M15.1181 23.949C23.1264 23.7177 23.9146 22.0319 23.9146 12.4617C23.9146 1.90165 22.9546 0.94165 12.3946 0.94165C1.83463 0.94165 0.874634 1.90165 0.874634 12.4617C0.874634 22.0569 1.66759 23.7263 9.73348 23.951C9.80356 23.8636 9.82948 23.7541 9.82948 23.6428C9.82948 23.4028 9.81988 20.9394 9.81508 20.0917C6.89959 20.7052 6.28423 18.7295 6.28423 18.7295C5.80711 17.5564 5.11975 17.2434 5.11975 17.2434C4.16839 16.6137 5.19175 16.6261 5.19175 16.6261C6.24391 16.6981 6.79783 17.6735 6.79783 17.6735C7.73287 19.2258 9.25159 18.7775 9.84868 18.5174C9.94372 17.8617 10.2144 17.4133 10.514 17.1599C8.18599 16.9036 5.73895 16.0319 5.73895 12.1391C5.73895 11.0303 6.14791 10.1241 6.81799 9.41365C6.70951 9.15637 6.35047 8.12341 6.92071 6.72565C6.92071 6.72565 7.80103 6.45205 9.80356 7.76629C10.6397 7.54069 11.5364 7.42837 12.4282 7.42453C13.3181 7.42837 14.2148 7.54069 15.0528 7.76629C17.0544 6.45205 17.9328 6.72565 17.9328 6.72565C18.505 8.12341 18.145 9.15637 18.0365 9.41365C18.7085 10.1241 19.1146 11.0303 19.1146 12.1391C19.1146 16.0415 16.6637 16.9007 14.328 17.1513C14.7044 17.4652 15.0394 18.0854 15.0394 19.0329C15.0394 19.941 15.0336 21.5471 15.0298 22.6117C15.0279 23.1388 15.0269 23.5324 15.0269 23.6428C15.0269 23.7474 15.0548 23.8578 15.1181 23.949Z" fill="white"/>
</g>
<defs>
<clipPath id="clip0_822_127">
<rect width="24" height="24" fill="white"/>
</clipPath>
</defs>
</svg>
