<svg width="24" height="24" viewBox="0 0 24 24" fill="none" xmlns="http://www.w3.org/2000/svg">
<path d="M19.9667 1.5C20.5856 1.5 21.179 1.74583 21.6166 2.18342C22.0542 2.621 22.3 3.21449 22.3 3.83333V20.1667C22.3 20.7855 22.0542 21.379 21.6166 21.8166C21.179 22.2542 20.5856 22.5 19.9667 22.5H3.63338C3.01454 22.5 2.42105 22.2542 1.98347 21.8166C1.54588 21.379 1.30005 20.7855 1.30005 20.1667V3.83333C1.30005 3.21449 1.54588 2.621 1.98347 2.18342C2.42105 1.74583 3.01454 1.5 3.63338 1.5H19.9667ZM19.3834 19.5833V13.4C19.3834 12.3913 18.9827 11.4239 18.2694 10.7106C17.5561 9.99737 16.5888 9.59667 15.58 9.59667C14.5884 9.59667 13.4334 10.2033 12.8734 11.1133V9.81833H9.61838V19.5833H12.8734V13.8317C12.8734 12.9333 13.5967 12.1983 14.495 12.1983C14.9282 12.1983 15.3437 12.3704 15.65 12.6767C15.9563 12.983 16.1284 13.3985 16.1284 13.8317V19.5833H19.3834ZM5.82672 7.98667C6.34654 7.98667 6.84507 7.78017 7.21264 7.4126C7.58022 7.04502 7.78672 6.54649 7.78672 6.02667C7.78672 4.94167 6.91172 4.055 5.82672 4.055C5.3038 4.055 4.8023 4.26273 4.43254 4.63249C4.06278 5.00225 3.85505 5.50375 3.85505 6.02667C3.85505 7.11167 4.74172 7.98667 5.82672 7.98667ZM7.44838 19.5833V9.81833H4.21672V19.5833H7.44838Z" fill="white"/>
</svg>
