<svg width="24" height="24" viewBox="0 0 24 24" fill="none" xmlns="http://www.w3.org/2000/svg">
<path d="M2 12C2 7.28595 2 4.92893 3.46447 3.46447C4.92893 2 7.28595 2 12 2C16.714 2 19.0711 2 20.5355 3.46447C22 4.92893 22 7.28595 22 12C22 16.714 22 19.0711 20.5355 20.5355C19.0711 22 16.714 22 12 22C7.28595 22 4.92893 22 3.46447 20.5355C2 19.0711 2 16.714 2 12Z" stroke="white" stroke-width="1.5"/>
<path d="M7.97825 16.7391C7.83417 17.0273 7.95097 17.3777 8.23913 17.5217C8.52728 17.6658 8.87767 17.549 9.02175 17.2609L7.97825 16.7391ZM12 10L12.5217 9.73913C12.4229 9.5415 12.221 9.41667 12 9.41667C11.779 9.41667 11.5771 9.5415 11.4783 9.73913L12 10ZM14.9783 17.2609C15.1223 17.549 15.4727 17.6658 15.7609 17.5217C16.049 17.3777 16.1658 17.0273 16.0217 16.7391L14.9783 17.2609ZM14.2273 14.4545L14.749 14.1937V14.1937L14.2273 14.4545ZM9.77273 13.8712C9.45056 13.8712 9.18939 14.1324 9.18939 14.4545C9.18939 14.7767 9.45056 15.0379 9.77273 15.0379V13.8712ZM9.02175 17.2609L12.5217 10.2609L11.4783 9.73913L7.97825 16.7391L9.02175 17.2609ZM16.0217 16.7391L14.749 14.1937L13.7055 14.7154L14.9783 17.2609L16.0217 16.7391ZM14.749 14.1937L12.5217 9.73913L11.4783 10.2609L13.7055 14.7154L14.749 14.1937ZM14.2273 13.8712H9.77273V15.0379H14.2273V13.8712Z" fill="white"/>
<path d="M9 7H15" stroke="white" stroke-width="1.5" stroke-linecap="round"/>
</svg>
